<svg viewBox="0 0 800 600" xmlns="http://www.w3.org/2000/svg">
  <!-- Background -->
  <rect width="800" height="600" fill="#f8f9fa"/>
  
  <!-- CPU -->
  <g transform="translate(100, 100)">
    <rect x="0" y="0" width="80" height="80" fill="#3498db" stroke="#2980b9" stroke-width="2" rx="8"/>
    <rect x="15" y="15" width="50" height="50" fill="#2980b9" rx="4"/>
    <text x="40" y="45" text-anchor="middle" font-family="Arial, sans-serif" font-size="12" font-weight="bold" fill="white">CPU</text>
    <!-- CPU pins -->
    <rect x="-3" y="20" width="6" height="2" fill="#34495e"/>
    <rect x="-3" y="30" width="6" height="2" fill="#34495e"/>
    <rect x="-3" y="40" width="6" height="2" fill="#34495e"/>
    <rect x="-3" y="50" width="6" height="2" fill="#34495e"/>
    <rect x="77" y="20" width="6" height="2" fill="#34495e"/>
    <rect x="77" y="30" width="6" height="2" fill="#34495e"/>
    <rect x="77" y="40" width="6" height="2" fill="#34495e"/>
    <rect x="77" y="50" width="6" height="2" fill="#34495e"/>
  </g>
  
  <!-- RAM -->
  <g transform="translate(300, 100)">
    <rect x="0" y="0" width="20" height="80" fill="#e74c3c" stroke="#c0392b" stroke-width="2" rx="3"/>
    <rect x="30" y="0" width="20" height="80" fill="#e74c3c" stroke="#c0392b" stroke-width="2" rx="3"/>
    <text x="25" y="95" text-anchor="middle" font-family="Arial, sans-serif" font-size="12" font-weight="bold" fill="#34495e">RAM</text>
    <!-- Memory notches -->
    <rect x="5" y="35" width="10" height="10" fill="#f8f9fa"/>
    <rect x="35" y="35" width="10" height="10" fill="#f8f9fa"/>
  </g>
  
  <!-- GPU -->
  <g transform="translate(500, 80)">
    <rect x="0" y="0" width="120" height="60" fill="#9b59b6" stroke="#8e44ad" stroke-width="2" rx="8"/>
    <rect x="10" y="10" width="100" height="40" fill="#8e44ad" rx="4"/>
    <text x="60" y="35" text-anchor="middle" font-family="Arial, sans-serif" font-size="12" font-weight="bold" fill="white">GPU</text>
    <!-- GPU fan -->
    <circle cx="90" cy="30" r="8" fill="#7d3c98" stroke="#6c3483" stroke-width="1"/>
    <circle cx="90" cy="30" r="3" fill="#6c3483"/>
  </g>
  
  <!-- Motherboard -->
  <g transform="translate(50, 250)">
    <rect x="0" y="0" width="500" height="200" fill="#27ae60" stroke="#229954" stroke-width="3" rx="10"/>
    <text x="250" y="30" text-anchor="middle" font-family="Arial, sans-serif" font-size="16" font-weight="bold" fill="white">Motherboard</text>
    
    <!-- CPU socket -->
    <rect x="100" y="60" width="60" height="60" fill="#2c3e50" stroke="#34495e" stroke-width="2" rx="5"/>
    
    <!-- RAM slots -->
    <rect x="200" y="70" width="15" height="60" fill="#34495e" rx="2"/>
    <rect x="220" y="70" width="15" height="60" fill="#34495e" rx="2"/>
    <rect x="240" y="70" width="15" height="60" fill="#34495e" rx="2"/>
    <rect x="260" y="70" width="15" height="60" fill="#34495e" rx="2"/>
    
    <!-- Expansion slots -->
    <rect x="320" y="80" width="120" height="8" fill="#34495e" rx="2"/>
    <rect x="320" y="100" width="120" height="8" fill="#34495e" rx="2"/>
    <rect x="320" y="120" width="120" height="8" fill="#34495e" rx="2"/>
    
    <!-- Capacitors -->
    <circle cx="80" cy="150" r="8" fill="#f39c12"/>
    <circle cx="100" cy="150" r="8" fill="#f39c12"/>
    <circle cx="120" cy="150" r="8" fill="#f39c12"/>
  </g>
  
  <!-- Hard Drive -->
  <g transform="translate(100, 500)">
    <rect x="0" y="0" width="100" height="60" fill="#34495e" stroke="#2c3e50" stroke-width="2" rx="5"/>
    <text x="50" y="35" text-anchor="middle" font-family="Arial, sans-serif" font-size="10" font-weight="bold" fill="white">HDD</text>
    <!-- Drive connectors -->
    <rect x="85" y="15" width="12" height="8" fill="#e74c3c"/>
    <rect x="85" y="35" width="12" height="8" fill="#f39c12"/>
  </g>
  
  <!-- SSD -->
  <g transform="translate(250, 500)">
    <rect x="0" y="0" width="80" height="40" fill="#16a085" stroke="#138d75" stroke-width="2" rx="3"/>
    <text x="40" y="25" text-anchor="middle" font-family="Arial, sans-serif" font-size="10" font-weight="bold" fill="white">SSD</text>
    <!-- SSD connector -->
    <rect x="65" y="15" width="12" height="10" fill="#f39c12"/>
  </g>
  
  <!-- Power Supply -->
  <g transform="translate(400, 480)">
    <rect x="0" y="0" width="120" height="80" fill="#2c3e50" stroke="#34495e" stroke-width="2" rx="8"/>
    <text x="60" y="30" text-anchor="middle" font-family="Arial, sans-serif" font-size="12" font-weight="bold" fill="white">PSU</text>
    <!-- Fan grille -->
    <circle cx="60" cy="50" r="20" fill="none" stroke="#7f8c8d" stroke-width="2"/>
    <circle cx="60" cy="50" r="15" fill="none" stroke="#7f8c8d" stroke-width="1"/>
    <circle cx="60" cy="50" r="10" fill="none" stroke="#7f8c8d" stroke-width="1"/>
  </g>
  
  <!-- Cooling Fan -->
  <g transform="translate(600, 200)">
    <circle cx="40" cy="40" r="35" fill="#95a5a6" stroke="#7f8c8d" stroke-width="2"/>
    <circle cx="40" cy="40" r="25" fill="#bdc3c7" stroke="#95a5a6" stroke-width="1"/>
    <text x="40" y="45" text-anchor="middle" font-family="Arial, sans-serif" font-size="8" font-weight="bold" fill="#2c3e50">FAN</text>
    <!-- Fan blades -->
    <path d="M40,15 Q50,30 40,40 Q30,30 40,15" fill="#7f8c8d"/>
    <path d="M65,40 Q50,50 40,40 Q50,30 65,40" fill="#7f8c8d"/>
    <path d="M40,65 Q30,50 40,40 Q50,50 40,65" fill="#7f8c8d"/>
    <path d="M15,40 Q30,30 40,40 Q30,50 15,40" fill="#7f8c8d"/>
  </g>
</svg>